<?xml version="1.0" standalone="no"?>
<!DOCTYPE svg PUBLIC "-//W3C//DTD SVG 20010904//EN"
 "http://www.w3.org/TR/2001/REC-SVG-20010904/DTD/svg10.dtd">
<svg version="1.0" xmlns="http://www.w3.org/2000/svg"
 width="2368.000000pt" height="2368.000000pt" viewBox="0 0 2368.000000 2368.000000"
 preserveAspectRatio="xMidYMid meet">
<metadata>
Created by potrace 1.14, written by Peter Selinger 2001-2017
</metadata>
<g transform="translate(0.000000,2368.000000) scale(0.100000,-0.100000)"
fill="#000000" stroke="none">
<path d="M1893 15033 c-13 -2 -23 -8 -23 -13 0 -5 -8 -9 -17 -8 -10 0 -36 -3
-58 -7 -22 -4 -46 -8 -52 -8 -7 0 -13 -4 -13 -9 0 -4 -4 -8 -10 -8 -5 0 -32
-13 -60 -30 -27 -16 -50 -26 -50 -22 0 4 -4 3 -8 -3 -10 -15 -49 -35 -67 -35
-8 0 -15 -5 -15 -12 0 -6 -3 -8 -7 -5 -3 4 -11 3 -17 -1 -6 -5 -30 -14 -53
-22 -23 -7 -41 -16 -38 -19 2 -4 -10 -13 -26 -20 -16 -7 -27 -17 -23 -22 3 -5
1 -9 -5 -9 -5 0 -24 -12 -42 -27 -18 -16 -29 -21 -24 -13 6 10 2 9 -12 -3 -19
-17 -24 -17 -57 -3 -20 8 -35 12 -32 7 3 -4 -18 -13 -47 -21 -29 -7 -56 -15
-62 -19 -10 -6 -16 -7 -36 -10 -5 0 -7 -7 -3 -13 6 -10 4 -10 -7 -2 -18 14
-44 10 -64 -9 -8 -9 -24 -19 -35 -22 -11 -3 -20 -11 -20 -16 0 -6 -4 -8 -8 -5
-5 3 -15 -6 -22 -19 -7 -14 -17 -25 -20 -25 -4 0 -23 -13 -41 -30 -19 -16 -40
-30 -46 -30 -7 0 -13 -3 -12 -7 2 -15 -14 -53 -22 -53 -5 0 -6 -7 -3 -15 4 -8
1 -15 -5 -15 -6 0 -11 -6 -11 -13 0 -7 -9 -23 -20 -35 -12 -12 -17 -22 -13
-22 4 0 2 -4 -5 -9 -14 -8 -18 -38 -27 -186 -6 -91 -12 -150 -15 -150 -3 0 -9
-50 -12 -92 -1 -18 -5 -33 -8 -33 -4 0 -15 -16 -26 -35 -10 -19 -22 -35 -27
-35 -4 0 -5 -4 -2 -10 3 -5 2 -10 -3 -10 -5 0 -9 -6 -10 -12 -4 -56 -12 -93
-19 -91 -5 1 -10 -8 -10 -20 -1 -12 -7 -23 -13 -25 -5 -2 -10 -8 -10 -13 0 -7
-27 -71 -62 -145 -5 -12 -11 -33 -11 -48 -1 -14 -5 -26 -8 -26 -4 0 -9 -12
-12 -27 -3 -16 -11 -41 -18 -58 -7 -16 -11 -36 -10 -44 1 -8 -2 -10 -10 -5 -8
4 -10 3 -5 -5 4 -6 0 -18 -8 -27 -9 -9 -14 -20 -11 -25 4 -5 1 -9 -4 -9 -6 0
-11 -6 -11 -12 0 -7 -18 -32 -40 -56 -43 -46 -83 -116 -73 -126 4 -3 1 -6 -6
-6 -7 0 -10 -4 -6 -9 3 -5 1 -12 -4 -16 -5 -3 -10 -13 -10 -23 0 -23 -5 -44
-14 -59 -5 -7 -6 -13 -3 -13 3 0 -1 -18 -9 -41 -8 -23 -13 -45 -10 -49 3 -4
-2 -11 -11 -14 -9 -4 -14 -9 -11 -12 3 -4 1 -12 -6 -20 -38 -43 -45 -59 -53
-121 -3 -20 -10 -43 -16 -50 -6 -7 -7 -13 -2 -13 5 0 2 -6 -6 -13 -20 -16 -24
-33 -21 -87 5 -77 4 -113 -3 -170 -16 -118 -19 -147 -19 -195 -1 -51 4 -86 18
-117 4 -10 5 -25 1 -33 -3 -8 -1 -15 5 -15 6 0 8 -9 4 -20 -3 -11 -2 -20 4
-20 5 0 8 -15 6 -32 -2 -18 -4 -33 -5 -33 -15 0 -13 -132 3 -175 6 -17 6 -17
11 -136 2 -58 9 -104 20 -124 9 -18 16 -39 16 -47 0 -7 3 -13 8 -13 4 0 8 -15
10 -33 3 -34 9 -72 13 -72 1 0 3 -13 4 -30 2 -16 4 -31 5 -32 1 -2 3 -6 4 -10
1 -5 6 -24 10 -43 5 -19 15 -45 23 -57 8 -12 12 -27 8 -33 -3 -5 -1 -10 4 -10
6 0 10 -3 9 -7 -4 -13 25 -127 35 -140 6 -9 6 -13 -2 -13 -7 0 -9 -4 -6 -10 3
-5 8 -20 11 -32 15 -65 40 -124 66 -150 10 -10 18 -25 18 -33 0 -8 5 -15 11
-15 5 0 8 -4 4 -9 -3 -5 1 -16 9 -24 8 -8 12 -17 9 -21 -4 -3 0 -6 7 -6 7 0
11 -3 7 -6 -3 -4 -1 -12 6 -19 7 -6 23 -27 37 -45 14 -18 30 -38 35 -44 6 -6
21 -28 35 -48 14 -21 28 -38 33 -38 4 0 7 -5 7 -11 0 -7 10 -20 22 -30 11 -11
18 -19 14 -19 -4 0 -1 -12 7 -27 8 -16 21 -41 28 -58 14 -31 68 -109 94 -136
8 -9 15 -21 15 -27 0 -7 5 -12 11 -12 5 0 7 -4 4 -10 -3 -5 0 -10 8 -10 21 0
104 -81 126 -125 12 -22 21 -36 21 -32 0 10 106 -98 149 -152 19 -24 40 -49
46 -55 5 -6 21 -25 35 -41 14 -17 28 -30 32 -30 3 0 22 -15 42 -33 20 -18 36
-29 36 -25 0 5 6 0 13 -9 8 -9 19 -18 27 -20 18 -4 77 -61 72 -71 -2 -4 1 -6
6 -5 11 4 72 -57 72 -72 0 -5 8 -10 17 -10 9 0 13 -3 10 -7 -6 -5 86 -75 103
-79 15 -3 47 -19 60 -29 8 -6 38 -20 65 -30 28 -10 54 -22 59 -26 6 -5 18 -9
27 -9 9 0 29 -7 45 -14 15 -8 31 -13 36 -10 4 3 8 0 8 -5 0 -6 9 -11 20 -11
11 0 20 -4 20 -10 0 -5 3 -9 8 -8 6 1 76 -17 112 -30 28 -10 45 -14 68 -15 12
0 22 -5 22 -10 0 -5 7 -7 15 -4 17 7 105 -21 105 -34 0 -5 7 -9 15 -9 8 0 15
-3 15 -8 0 -10 75 -41 120 -48 19 -4 62 -26 78 -42 8 -7 18 -10 23 -7 5 4 9 2
9 -4 0 -6 12 -17 28 -25 15 -8 23 -15 19 -16 -4 0 4 -12 18 -27 14 -15 25 -30
25 -34 0 -3 24 -16 53 -29 28 -13 60 -32 70 -43 9 -11 17 -16 17 -12 0 4 8 -1
18 -11 54 -61 67 -65 199 -63 70 0 123 5 123 11 0 5 5 6 10 3 9 -6 14 8 11 28
0 4 4 7 10 7 5 0 8 4 4 9 -3 5 0 13 6 16 5 4 8 13 5 21 -3 8 -1 14 4 14 6 0
10 9 10 20 0 11 5 20 11 20 6 0 9 7 5 15 -3 8 0 15 7 15 9 0 9 2 0 8 -6 4 -13
19 -15 32 -2 14 -7 30 -11 37 -4 6 -3 15 3 18 8 5 8 11 1 19 -6 7 -8 16 -4 19
3 4 8 22 10 39 2 18 6 40 10 48 3 8 8 23 9 32 2 10 5 23 6 30 2 7 6 15 10 18
3 3 8 19 11 35 3 17 10 44 17 60 6 17 11 32 10 34 -1 2 3 7 10 11 6 4 12 14
14 22 2 20 62 79 70 71 3 -4 6 2 6 13 0 11 9 44 20 74 11 30 18 60 16 67 -3 7
-1 15 4 18 6 4 10 14 10 23 0 21 59 140 82 166 10 11 20 28 24 38 3 10 10 18
16 18 6 0 8 3 5 6 -3 4 -2 15 4 25 7 14 6 19 -3 19 -10 0 -10 2 1 9 7 5 11 13
7 19 -3 6 -2 13 4 17 6 4 8 10 5 15 -3 5 -1 11 5 15 5 3 10 15 10 26 0 10 4
19 8 19 4 0 8 10 9 22 1 11 7 24 13 28 6 4 10 11 9 16 -1 8 -1 12 6 32 2 4 6
17 10 30 4 12 10 22 14 22 3 0 7 15 8 33 4 49 6 57 14 57 4 0 6 8 4 18 -1 9 0
22 4 27 6 11 6 13 16 60 3 16 10 34 15 40 5 6 11 24 14 40 3 17 10 31 15 33 6
2 8 9 5 16 -3 8 2 21 11 29 9 9 15 18 15 19 -1 3 4 20 17 58 3 8 6 36 8 61 1
26 5 51 9 58 9 13 16 44 21 89 2 18 7 37 11 44 5 7 3 8 -6 3 -8 -5 -11 -4 -7
2 6 10 12 37 22 113 3 25 9 59 11 75 3 17 8 41 10 55 3 14 5 31 6 38 1 6 5 12
10 12 5 0 7 4 3 9 -3 5 -1 12 5 16 6 4 8 11 5 16 -4 5 -2 9 3 9 10 0 9 25 -3
75 -11 46 -14 95 -6 95 11 0 30 91 26 125 -1 17 2 33 9 37 7 5 7 8 0 8 -6 0
-8 19 -4 55 3 31 4 58 2 60 -3 3 -6 32 -7 65 -1 33 -5 63 -8 67 -4 3 1 12 11
20 9 8 12 12 6 9 -8 -4 -11 10 -11 42 1 26 -3 61 -7 77 -4 17 -8 35 -10 42 -1
7 -5 16 -9 19 -4 4 -7 18 -7 31 0 13 -4 23 -10 23 -10 0 -7 110 4 128 4 7 2
12 -6 12 -9 0 -9 3 2 10 10 6 11 10 3 10 -7 0 -13 6 -13 14 0 8 -5 27 -12 43
-6 15 -12 39 -14 53 -1 14 -3 25 -4 25 -2 0 -10 33 -14 55 -1 8 -9 31 -18 50
-9 19 -21 51 -28 70 -15 44 -23 64 -48 120 -19 42 -25 69 -37 142 -3 24 -22
65 -35 78 -10 10 -31 45 -36 63 -4 9 -10 17 -15 17 -5 0 -9 7 -9 15 0 8 -5 15
-11 15 -5 0 -8 4 -5 9 4 5 1 11 -4 13 -6 2 -12 10 -14 18 -14 75 -22 93 -49
120 -17 16 -27 30 -22 30 5 0 0 7 -12 15 -11 8 -24 26 -27 40 -4 14 -11 25
-16 25 -6 0 -10 8 -10 18 0 9 -9 28 -20 42 -11 14 -20 31 -20 38 0 6 -5 12
-12 12 -6 0 -8 3 -5 7 4 3 -10 18 -30 31 -36 25 -99 84 -95 90 7 8 0 22 -8 17
-5 -3 -10 1 -10 9 0 9 -3 16 -8 16 -4 0 -13 13 -20 29 -14 31 -67 91 -81 91
-4 0 -49 39 -99 88 -112 108 -167 156 -183 160 -7 2 -20 12 -30 23 -9 10 -21
19 -28 19 -6 0 -11 5 -11 10 0 6 -7 10 -15 10 -8 0 -15 5 -15 10 0 6 -9 10
-20 10 -11 0 -20 4 -20 9 0 5 -11 12 -25 15 -14 4 -25 11 -25 17 0 6 -4 7 -10
4 -5 -3 -10 -2 -10 3 0 12 -59 73 -74 77 -18 3 -49 16 -70 26 -14 8 -17 7 -11
-3 3 -7 0 -5 -8 5 -8 9 -17 17 -21 17 -4 0 -14 6 -21 13 -34 30 -43 35 -49 30
-3 -4 -6 1 -6 10 0 9 -6 17 -13 17 -7 0 -19 9 -27 20 -8 11 -20 20 -27 20 -7
0 -13 4 -13 9 0 5 -8 12 -17 14 -17 4 -17 5 0 6 9 0 17 7 17 14 0 8 3 9 8 1 5
-8 28 -7 81 2 41 7 79 11 83 8 4 -3 8 -1 8 5 0 5 9 8 20 6 11 -2 20 0 20 5 0
4 11 7 25 5 14 -1 25 1 25 4 0 4 12 8 28 9 15 1 28 6 30 10 1 5 16 7 32 6 17
-1 33 2 36 7 3 5 16 9 30 9 13 0 24 5 24 11 0 6 7 9 15 5 8 -3 15 -1 15 5 0 6
7 9 15 5 8 -3 15 -1 15 5 0 6 5 7 10 4 6 -3 10 -2 10 2 0 5 10 9 22 10 11 1
24 6 27 10 3 4 17 10 31 11 13 2 47 15 74 28 27 13 55 24 62 24 7 0 14 4 16 9
2 5 10 11 18 13 8 2 17 5 20 8 3 3 29 17 57 32 29 16 64 37 77 49 13 12 27 21
30 20 3 0 22 15 41 35 39 39 62 84 44 84 -6 0 -9 7 -5 15 3 8 1 15 -5 15 -6 0
-8 4 -5 9 9 14 -72 113 -86 105 -4 -3 -8 0 -8 5 0 6 -3 10 -7 9 -5 -1 -24 5
-43 14 -19 8 -53 20 -75 27 -22 7 -47 15 -55 18 -24 9 -42 13 -80 18 -19 2
-36 4 -37 6 -2 1 -7 3 -13 4 -5 1 -13 4 -17 5 -5 1 -14 3 -21 4 -7 0 -16 6
-20 11 -4 6 -11 10 -17 11 -25 1 -65 17 -65 26 0 5 -4 7 -9 3 -5 -3 -12 -1
-16 5 -4 6 -11 8 -16 5 -5 -4 -9 -2 -9 3 0 9 -55 26 -72 23 -5 0 -8 3 -8 7 0
4 -10 9 -22 10 -56 5 -78 9 -84 15 -7 7 -497 7 -531 0z"/>
<path d="M21040 12270 c-8 -5 -17 -7 -21 -4 -4 2 -10 0 -14 -5 -3 -6 -12 -8
-20 -4 -8 3 -15 1 -15 -4 0 -8 -18 -13 -62 -16 -9 -1 -14 -5 -12 -9 5 -8 0
-10 -28 -12 -16 -1 -29 -11 -78 -58 -21 -20 -41 -34 -43 -31 -3 2 -10 -5 -17
-16 -6 -12 -15 -19 -21 -16 -5 4 -9 0 -9 -8 0 -8 -9 -25 -20 -38 -50 -61 -72
-98 -65 -109 3 -6 1 -10 -6 -10 -6 0 -9 -8 -6 -19 3 -11 -1 -22 -9 -25 -7 -3
-11 -14 -9 -25 2 -11 -1 -23 -6 -26 -5 -4 -7 -11 -4 -16 4 -5 1 -9 -5 -9 -6 0
-8 -5 -5 -10 4 -6 2 -16 -3 -23 -5 -7 -9 -35 -8 -64 0 -28 -2 -49 -6 -47 -9 6
3 -179 12 -196 2 -3 4 -9 5 -15 1 -5 5 -17 8 -25 11 -26 31 -105 29 -112 -1
-5 2 -8 7 -8 5 0 7 -10 3 -22 -3 -14 -2 -19 6 -14 7 4 12 2 12 -5 0 -6 10 -20
22 -30 11 -11 17 -19 13 -19 -4 0 4 -11 19 -25 14 -13 26 -29 26 -34 0 -6 9
-15 20 -21 11 -6 35 -24 53 -41 67 -61 75 -68 81 -62 3 4 6 1 6 -5 0 -6 7 -9
15 -6 8 4 17 -1 21 -9 3 -9 14 -14 25 -12 11 2 17 0 14 -4 -2 -5 4 -11 15 -14
11 -3 20 0 20 6 0 8 3 8 8 2 10 -15 34 -17 167 -17 122 0 140 1 163 16 7 4 16
5 19 2 3 -3 12 -1 20 5 7 6 13 8 13 5 0 -4 12 0 28 8 34 18 65 30 75 28 4 -1
7 3 7 8 0 6 5 10 11 10 17 0 139 94 139 107 0 7 8 17 18 22 9 6 13 11 9 11 -4
0 1 10 13 22 11 12 28 39 37 60 9 21 20 38 25 38 4 0 5 6 2 14 -3 8 -1 17 5
21 6 3 11 15 11 25 0 10 6 21 13 23 8 4 9 6 0 6 -8 1 -9 10 -3 31 6 21 5 30
-3 30 -9 0 -9 2 0 8 10 6 27 107 25 157 -1 44 -17 180 -21 180 -2 0 -6 14 -14
52 -2 7 -6 16 -10 19 -4 4 -7 15 -7 24 0 10 -7 23 -15 30 -8 7 -13 16 -10 20
3 4 -7 20 -20 34 -14 15 -25 34 -25 42 0 7 -5 14 -10 14 -6 0 -14 8 -17 18 -9
23 -29 42 -44 42 -7 0 -10 3 -6 6 14 14 -104 99 -153 109 -8 2 -17 4 -20 5 -3
1 -8 2 -12 1 -5 0 -8 3 -8 7 0 14 -131 36 -222 37 -49 0 -88 -3 -88 -8 0 -5
-6 -5 -13 1 -8 7 -18 7 -27 2z m148 -204 c12 0 22 -4 22 -8 0 -5 8 -8 18 -8
11 0 29 -9 42 -20 13 -11 27 -20 32 -20 5 0 7 -4 4 -8 -3 -5 6 -15 19 -22 13
-7 22 -17 19 -22 -3 -4 0 -8 6 -8 6 0 15 -11 20 -25 6 -14 14 -35 19 -47 5
-13 8 -26 7 -29 0 -3 4 -12 10 -20 9 -11 24 -64 28 -101 1 -3 4 -10 8 -14 4
-4 3 -13 -3 -20 -7 -8 -7 -14 0 -18 7 -4 7 -15 1 -31 -6 -15 -6 -27 0 -30 6
-3 6 -15 0 -30 -5 -13 -6 -26 -2 -29 7 -4 8 -111 2 -111 -1 0 -4 -16 -7 -35
-2 -19 -9 -38 -15 -41 -6 -4 -7 -12 -4 -18 4 -6 2 -11 -4 -11 -6 0 -8 -4 -5
-10 3 -5 1 -10 -4 -10 -6 0 -11 -7 -11 -15 0 -8 -5 -15 -11 -15 -5 0 -8 -4 -5
-8 3 -5 -4 -15 -15 -22 -10 -8 -19 -21 -19 -29 0 -8 -3 -11 -6 -8 -4 4 -15 -3
-25 -15 -11 -11 -19 -18 -19 -13 0 4 -6 3 -12 -2 -7 -5 -23 -8 -35 -7 -13 0
-23 -2 -23 -7 0 -4 -14 -4 -31 1 -18 5 -35 7 -40 5 -4 -3 -11 0 -14 6 -4 5
-13 8 -21 5 -7 -3 -16 -1 -19 5 -4 5 -10 7 -15 4 -5 -3 -16 5 -24 17 -9 12
-16 19 -16 14 0 -5 -14 5 -30 23 -17 17 -35 31 -42 31 -6 0 -8 3 -5 7 4 3 1
13 -5 21 -7 8 -13 20 -14 27 -1 7 -9 28 -17 46 -8 19 -18 48 -21 64 -4 17 -9
41 -12 55 -9 39 -10 219 -1 275 15 91 18 105 33 133 7 15 14 32 14 38 0 19 57
72 109 102 19 11 22 11 15 0 -6 -10 -5 -11 7 -2 18 15 49 22 74 16 11 -2 30
-5 43 -6z"/>
<path d="M5328 12256 c-9 -8 -18 -12 -22 -9 -3 4 -6 -5 -7 -18 -1 -13 -2 -40
-3 -59 -4 -53 10 -75 47 -78 17 -2 36 -7 41 -12 4 -4 15 -6 24 -3 10 4 13 2 8
-5 -4 -7 -3 -12 2 -12 11 0 11 -249 0 -265 -4 -6 -3 -17 2 -24 4 -8 4 -27 0
-42 -6 -19 -5 -29 2 -29 7 0 7 -4 -1 -13 -6 -8 -7 -17 -3 -21 12 -12 12 -377
-1 -369 -6 4 -7 1 -2 -8 12 -19 14 -49 3 -55 -5 -3 -5 -11 1 -17 13 -17 -9
-45 -40 -51 -71 -13 -78 -20 -82 -95 -3 -46 0 -61 10 -61 7 0 13 -4 13 -9 0
-5 50 -8 110 -7 61 0 110 -3 110 -7 0 -4 9 -3 20 3 14 8 20 8 20 0 0 -6 4 -9
9 -6 5 4 83 6 173 6 297 -1 383 0 403 4 11 2 26 -1 33 -7 8 -6 12 -6 12 2 0 7
4 10 9 7 26 -16 63 42 64 102 0 6 4 12 8 12 4 0 5 9 2 20 -3 11 -1 20 4 20 5
0 7 23 6 51 -2 28 0 48 4 46 5 -3 8 28 8 69 0 41 3 74 8 74 4 0 3 10 -4 21 -8
15 -8 19 0 15 16 -10 13 -2 -6 21 -11 12 -32 20 -53 21 -19 1 -44 4 -55 6 -21
4 -65 -37 -65 -61 0 -7 -6 -13 -12 -13 -9 0 -8 -4 2 -10 10 -6 11 -10 3 -10
-7 0 -13 -7 -13 -15 0 -8 -5 -15 -11 -15 -5 0 -8 -4 -4 -9 3 -5 -2 -16 -10
-25 -9 -8 -16 -19 -17 -23 -1 -13 -11 -38 -17 -43 -3 -3 -11 -14 -18 -25 -6
-11 -16 -19 -22 -18 -6 2 -11 -2 -11 -7 0 -12 -22 -9 -32 5 -5 6 -8 6 -8 -1 0
-6 -21 -11 -50 -11 -35 -1 -48 2 -43 11 5 8 3 8 -8 0 -8 -7 -40 -11 -72 -11
-51 1 -58 4 -63 24 -4 13 -4 29 -1 37 3 7 0 19 -6 25 -7 7 -7 11 0 11 5 0 10
13 9 30 -1 16 -3 30 -6 30 -3 0 -5 149 -5 330 0 182 3 330 8 330 4 0 5 11 1
25 -6 25 0 31 41 38 11 2 28 7 37 11 9 4 22 5 28 1 5 -3 10 -1 10 5 0 6 4 9 9
6 14 -9 40 17 44 44 3 14 1 35 -4 47 -5 13 -4 25 2 29 13 8 -8 34 -28 34 -8 0
-11 5 -7 12 5 7 3 8 -7 2 -18 -11 -308 -13 -315 -2 -3 5 -11 5 -17 1 -17 -10
-47 -11 -47 -1 0 5 -6 6 -12 2 -18 -11 -48 -12 -48 -2 0 5 -6 6 -12 1 -17 -10
-52 -10 -59 0 -3 5 -13 2 -21 -7z"/>
<path d="M6874 12261 c3 -5 0 -11 -8 -14 -7 -3 -13 -16 -12 -29 1 -13 -2 -29
-7 -35 -6 -9 -5 -13 3 -13 10 0 10 -3 0 -15 -10 -12 -10 -15 1 -15 12 0 12 -2
1 -9 -11 -7 -9 -13 9 -29 12 -12 26 -19 32 -15 5 3 13 -1 18 -8 7 -11 9 -11 9
-1 0 8 5 10 13 5 13 -8 18 -10 42 -12 11 -1 12 -7 5 -25 -5 -15 -5 -27 3 -35
6 -6 7 -11 2 -11 -6 0 -10 -20 -10 -45 0 -25 3 -45 7 -45 4 0 4 -11 -1 -23 -5
-13 -5 -30 -1 -37 5 -8 6 -19 2 -25 -10 -16 -11 -35 -1 -35 5 0 4 -11 -1 -25
-6 -17 -6 -25 1 -25 6 0 7 -5 3 -12 -10 -16 -12 -58 -2 -58 4 0 4 -11 -1 -23
-5 -13 -5 -30 -1 -37 5 -8 6 -19 2 -25 -9 -14 -11 -35 -4 -35 4 0 6 -69 6
-152 -1 -84 -3 -153 -4 -153 -1 0 -3 -8 -5 -17 -2 -10 1 -18 6 -18 4 0 6 -7 3
-15 -4 -8 -12 -15 -20 -15 -8 0 -14 -4 -14 -8 0 -7 -16 -11 -57 -14 -7 -1 -13
-5 -13 -10 0 -5 -4 -7 -9 -3 -6 3 -8 -4 -6 -15 2 -11 0 -20 -4 -20 -9 0 -7
-79 3 -102 7 -14 26 -17 139 -18 370 -3 388 -2 402 17 7 9 10 24 7 32 -3 8 -1
12 4 9 10 -7 10 72 0 98 -3 8 -10 13 -15 10 -5 -4 -12 0 -14 6 -4 10 -6 9 -6
-1 -1 -10 -5 -11 -13 -3 -7 6 -26 12 -43 14 -18 2 -31 9 -31 18 -1 8 -3 17 -4
20 -1 3 -3 68 -4 145 -1 77 -5 146 -9 152 -4 6 -3 14 2 18 6 3 9 100 8 248 -1
133 2 248 6 255 5 6 4 12 -2 12 -6 0 -8 6 -5 14 6 15 37 29 67 29 9 0 17 3 17
7 0 4 9 10 20 13 12 3 20 14 21 29 0 12 2 40 3 61 4 49 -15 68 -63 66 -20 -2
-43 1 -51 6 -8 5 -11 4 -7 -2 4 -7 -10 -10 -38 -9 -25 0 -45 5 -45 9 0 4 -9 3
-20 -3 -11 -6 -20 -7 -20 -3 0 10 -77 8 -102 -2 -10 -4 -18 -3 -18 3 0 12 -32
10 -43 -3 -6 -7 -10 -6 -13 2 -4 8 -13 9 -30 3 -15 -6 -24 -6 -24 1 0 6 -7 6
-19 -1 -13 -7 -22 -7 -26 0 -3 5 -11 10 -16 10 -6 0 -8 -4 -5 -9z"/>
<path d="M8025 12261 c-3 -5 -14 -8 -24 -6 -10 2 -24 0 -31 -5 -10 -6 -20 -66
-21 -130 -1 -8 -3 -22 -6 -30 -3 -8 -6 -66 -7 -129 -1 -89 2 -117 14 -130 16
-17 47 -21 67 -8 6 4 13 2 16 -5 3 -10 7 -10 20 1 10 7 17 10 17 6 0 -5 9 0
20 10 11 10 20 24 20 32 0 7 4 13 10 13 6 0 10 3 9 8 -2 15 14 52 23 52 5 0 6
5 3 10 -3 6 -1 10 4 10 6 0 11 3 10 8 -2 15 14 52 22 52 5 0 8 5 7 12 -2 8 17
12 58 13 34 1 66 5 72 8 5 4 13 0 16 -9 4 -10 2 -13 -7 -8 -9 6 -9 4 -1 -7 6
-8 9 -46 7 -94 -2 -44 -5 -104 -6 -132 -2 -31 2 -53 8 -53 6 0 6 -3 -1 -8 -12
-7 -12 -71 0 -90 3 -6 2 -13 -4 -17 -6 -4 -7 -13 -2 -23 6 -13 7 -279 1 -414
0 -11 -17 -22 -52 -32 -28 -8 -54 -13 -59 -10 -4 3 -8 -2 -8 -10 0 -9 -5 -16
-11 -16 -7 0 -9 -10 -7 -25 3 -13 2 -22 -2 -20 -11 7 -4 -75 7 -86 9 -9 115
-11 453 -7 128 1 138 6 135 64 -1 19 1 34 5 34 11 0 5 37 -9 54 -7 8 -19 12
-27 9 -8 -3 -14 1 -14 8 0 7 -3 9 -7 6 -3 -4 -12 -2 -20 4 -8 8 -13 8 -13 1 0
-6 -10 -7 -27 -3 -23 6 -28 13 -28 39 0 18 -3 32 -8 32 -4 0 -5 5 -1 11 3 6 6
39 5 73 -7 247 -5 726 4 727 6 1 36 2 68 4 51 2 60 -1 77 -23 11 -13 17 -28
14 -33 -3 -5 0 -9 6 -9 6 0 8 -4 5 -10 -3 -5 -1 -10 5 -10 6 0 8 -5 4 -11 -3
-6 -1 -15 6 -19 7 -5 14 -16 15 -27 2 -21 34 -85 47 -94 5 -3 31 -4 56 -1 26
2 55 5 65 5 25 2 30 30 29 180 -1 138 -2 153 -16 176 -7 11 -6 12 5 6 12 -7
12 -6 1 7 -7 9 -11 20 -10 24 2 5 -5 20 -15 34 -9 13 -17 20 -17 14 0 -11 -40
-12 -57 -1 -7 4 -14 3 -17 -2 -7 -10 -126 -9 -143 2 -6 4 -14 1 -17 -5 -5 -11
-7 -11 -12 0 -3 6 -10 9 -16 6 -13 -8 -68 -12 -68 -4 0 3 -22 5 -49 5 -27 0
-47 -4 -44 -9 4 -5 0 -6 -7 -1 -17 11 -80 14 -74 3 3 -4 -6 -4 -20 2 -17 6
-27 6 -32 -1 -4 -7 -10 -7 -18 0 -7 6 -16 8 -20 4 -12 -12 -156 -10 -156 1 0
6 -5 4 -10 -4 -9 -13 -10 -13 -10 0 0 13 -1 13 -10 0 -9 -13 -10 -13 -10 0 0
9 -3 11 -8 5 -8 -12 -141 -14 -159 -2 -6 4 -14 3 -18 -2z"/>
<path d="M9621 12263 c-1 -7 -8 -10 -16 -7 -33 13 -54 -33 -56 -128 0 -10 -5
-18 -10 -18 -6 0 -6 -7 0 -19 6 -10 7 -21 4 -25 -9 -9 -10 -176 -1 -176 4 0 5
-11 2 -25 -5 -30 17 -44 82 -49 71 -5 83 1 96 50 7 24 16 44 20 44 4 0 8 6 8
13 0 6 11 39 25 72 25 59 27 60 63 58 20 -1 52 -2 71 -2 28 -1 33 -4 28 -21
-3 -11 -2 -20 3 -20 6 0 6 -25 0 -55 -1 -5 -1 -12 0 -15 1 -3 3 -69 4 -147 1
-95 -2 -139 -9 -135 -5 3 -5 -1 2 -9 12 -15 11 -207 -1 -228 -4 -6 -3 -11 2
-11 5 0 9 -7 9 -15 0 -8 -5 -15 -11 -15 -7 0 -7 -3 -1 -8 14 -10 14 -192 0
-193 -29 -2 -60 -10 -65 -18 -3 -4 -13 -7 -22 -5 -10 1 -18 -2 -18 -7 0 -5 -6
-9 -13 -9 -6 0 -13 -12 -14 -27 -1 -16 -3 -40 -6 -56 -7 -42 19 -62 83 -65
133 -5 213 -1 222 13 5 6 8 6 8 -2 0 -9 33 -12 125 -11 107 1 128 4 147 19 14
13 16 19 7 19 -9 0 -10 3 -3 8 6 4 10 20 10 35 -1 16 2 31 6 33 12 8 -15 44
-33 44 -8 0 -19 3 -22 7 -7 7 -50 15 -79 14 -13 0 -17 7 -14 30 2 16 -1 29 -6
29 -5 0 -6 6 -2 12 12 19 12 48 0 48 -6 0 -6 4 1 11 7 7 8 21 3 40 -6 20 -5
29 3 29 8 0 8 3 2 8 -12 9 -14 172 -1 172 5 0 3 7 -4 15 -10 12 -10 15 1 15
12 0 12 2 0 9 -10 6 -10 10 -1 16 9 6 9 10 -1 16 -8 5 -9 9 -4 9 10 0 11 127
2 275 -1 28 2 56 8 64 7 11 7 13 -3 7 -11 -6 -12 0 -6 31 4 21 8 39 9 40 1 2
32 4 68 5 l67 3 20 -42 c11 -24 20 -47 20 -53 0 -5 5 -10 11 -10 5 0 7 -4 4
-10 -3 -5 -1 -10 5 -10 7 0 9 -7 6 -16 -4 -10 -2 -13 6 -8 7 5 9 2 5 -9 -3 -8
1 -21 9 -27 8 -7 14 -18 14 -26 0 -16 24 -24 97 -29 66 -4 63 -7 66 70 1 25 6
45 10 45 4 0 4 8 0 18 -4 9 -8 46 -8 82 0 36 -4 68 -10 72 -6 5 -5 8 3 8 7 0
10 5 6 12 -4 6 -8 26 -9 44 0 18 -4 36 -8 40 -4 4 -7 15 -7 25 0 19 -23 31
-45 23 -8 -4 -15 -2 -15 3 0 11 -50 11 -67 0 -7 -5 -13 -4 -13 0 0 5 -9 9 -20
10 -11 1 -18 -2 -15 -7 3 -6 -1 -7 -10 -4 -26 10 -88 11 -107 2 -12 -6 -18 -5
-18 2 0 6 -5 8 -12 4 -19 -12 -58 -14 -58 -3 0 6 -4 7 -10 4 -20 -12 -50 -14
-50 -2 0 7 -4 6 -10 -3 -9 -13 -10 -13 -10 0 0 13 -1 13 -10 0 -7 -11 -10 -11
-10 -2 0 9 -5 10 -19 2 -14 -7 -21 -6 -24 3 -4 9 -6 9 -6 0 -1 -9 -8 -10 -24
-4 -13 5 -30 5 -37 1 -14 -9 -174 -5 -190 5 -5 3 -11 1 -14 -4 -4 -6 -18 -6
-36 -1 -17 5 -30 5 -30 1 0 -4 -7 -8 -15 -8 -8 0 -15 4 -15 9 0 5 -5 6 -12 2
-17 -11 -58 -11 -58 -1 0 4 -9 3 -19 -3 -14 -7 -21 -6 -24 3 -4 9 -6 9 -6 0z"/>
<path d="M11256 12261 c-3 -5 -14 -8 -24 -7 -36 6 -54 -20 -58 -82 -3 -69 -2
-70 94 -86 15 -3 39 -26 27 -26 -6 0 -3 -5 5 -10 10 -6 11 -10 3 -10 -9 0 -10
-7 -4 -23 6 -14 5 -30 -2 -42 -7 -14 -7 -20 1 -23 7 -2 9 -9 5 -15 -12 -19
-14 -47 -3 -47 6 0 10 -5 10 -11 0 -5 -4 -8 -8 -5 -10 6 -7 -68 4 -85 4 -7 3
-9 -4 -5 -7 4 -10 -1 -9 -14 1 -11 5 -20 10 -20 5 0 3 -7 -4 -17 -11 -13 -11
-17 -2 -20 9 -3 10 -10 3 -24 -6 -10 -7 -19 -2 -19 10 0 9 -30 -2 -48 -4 -6
-3 -12 2 -12 8 0 8 -72 -1 -133 -2 -15 0 -30 5 -33 5 -3 5 -11 0 -17 -10 -14
-9 -148 1 -165 4 -6 3 -13 -1 -16 -5 -3 -7 -17 -4 -31 4 -26 -23 -59 -40 -49
-10 6 -61 -21 -77 -40 -10 -12 -11 -16 -1 -16 8 0 9 -6 5 -17 -13 -32 -13 -62
0 -80 17 -23 62 -25 467 -20 77 1 124 5 121 11 -4 5 -1 6 7 1 23 -14 151 -16
145 -2 -4 7 1 3 9 -7 9 -11 16 -16 16 -10 0 5 37 8 88 6 83 -3 89 -2 100 20 7
13 14 34 16 48 3 14 5 25 6 25 2 0 9 34 14 70 3 17 5 30 6 30 3 0 9 47 11 87
1 22 6 35 12 31 6 -4 7 -1 2 8 -14 21 -15 59 -2 59 8 0 8 3 -1 12 -7 7 -8 17
-2 28 7 13 4 24 -10 41 -17 19 -30 22 -75 21 -31 0 -60 -6 -68 -14 -6 -7 -29
-48 -50 -91 -21 -42 -45 -83 -52 -91 -8 -8 -23 -29 -33 -47 -16 -30 -24 -34
-63 -35 -24 -1 -47 4 -51 10 -6 8 -8 8 -8 -1 0 -11 -16 -12 -35 -2 -5 3 -41 5
-80 4 l-70 -1 1 143 c1 79 -2 146 -7 149 -5 3 -7 10 -4 15 11 17 14 49 5 54
-6 3 -6 15 0 30 6 16 5 25 -3 29 -7 2 -7 5 -2 5 9 1 12 123 5 201 -1 14 -1 27
0 30 1 3 3 44 5 92 3 104 8 122 35 115 11 -3 20 -1 20 5 0 5 5 6 10 3 6 -4 17
-2 24 4 7 6 23 12 36 14 27 4 51 33 44 52 -3 7 0 23 6 35 9 18 9 21 0 15 -8
-5 -10 -2 -6 11 12 40 -7 48 -111 49 -54 0 -104 4 -112 9 -9 6 -12 5 -8 -1 4
-7 -5 -10 -23 -9 -17 0 -30 4 -30 8 0 4 -11 4 -23 -1 -13 -5 -30 -5 -37 -1 -9
5 -20 4 -27 -2 -7 -6 -13 -6 -13 -1 0 10 -86 10 -96 0 -4 -4 -13 -2 -20 4 -8
6 -14 6 -18 0z"/>
<path d="M12774 12261 c4 -6 2 -9 -6 -6 -26 10 -39 -12 -42 -73 -2 -34 0 -65
5 -68 5 -3 7 -9 5 -13 -5 -8 3 -10 54 -13 17 -1 30 -5 30 -10 0 -4 3 -7 8 -7
4 1 12 1 17 0 6 -1 10 -99 10 -272 0 -149 3 -273 7 -275 5 -3 4 -13 -2 -23 -5
-10 -6 -21 -3 -25 9 -9 10 -136 1 -136 -4 0 -3 -11 2 -24 5 -13 7 -26 5 -28
-2 -2 -6 -25 -10 -52 -7 -59 -11 -66 -36 -66 -10 0 -19 -4 -19 -10 0 -5 -7 -7
-15 -4 -27 11 -51 -19 -54 -66 -2 -25 -5 -48 -7 -51 -2 -4 4 -17 15 -30 17
-21 26 -23 117 -22 54 1 153 1 219 2 174 1 205 -1 205 -13 0 -7 3 -7 8 1 5 8
59 11 185 10 112 -1 177 2 177 8 0 7 3 7 8 0 11 -15 62 -13 62 2 0 7 4 13 8
13 5 0 9 6 10 13 2 24 19 112 22 112 3 0 11 43 15 85 2 25 5 45 5 45 1 0 3 28
4 62 2 66 -13 100 -38 90 -8 -3 -17 -1 -19 6 -3 9 -8 8 -20 -2 -10 -8 -17 -9
-17 -3 0 6 -13 9 -30 7 -46 -6 -71 -16 -64 -26 3 -6 -2 -21 -10 -34 -9 -14
-14 -25 -11 -25 4 0 -1 -7 -10 -16 -9 -9 -14 -23 -11 -30 3 -7 -1 -17 -8 -21
-7 -5 -18 -21 -23 -38 -7 -22 -16 -30 -31 -29 -12 1 -22 -3 -22 -9 0 -7 -4 -7
-12 1 -7 7 -17 8 -30 1 -13 -7 -18 -6 -18 3 0 10 -2 10 -9 0 -9 -15 -20 -15
-38 0 -9 7 -13 7 -13 0 0 -7 -23 -10 -60 -10 -35 1 -60 6 -60 12 0 6 -4 5 -9
-2 -9 -14 -39 -13 -56 2 -11 10 -12 136 -1 154 4 7 2 12 -6 12 -8 0 -9 3 -3 8
6 4 11 39 11 77 l1 70 66 0 c38 0 67 4 67 10 0 6 5 3 10 -5 8 -12 10 -12 10
-1 0 10 3 11 13 2 8 -6 17 -8 20 -4 4 3 14 0 24 -8 9 -8 14 -9 10 -3 -4 8 10
12 46 13 92 3 102 6 114 26 6 11 9 23 7 27 -3 5 -1 8 4 8 6 0 7 14 2 35 -4 19
-5 35 -1 35 10 0 8 42 -3 59 -7 10 -5 12 5 7 8 -4 3 2 -10 13 -12 12 -27 18
-32 16 -12 -8 -359 -14 -360 -6 -5 31 -3 71 4 71 5 0 4 6 -2 13 -6 8 -8 17 -5
20 13 13 13 137 1 137 -8 0 -8 3 -2 8 6 4 10 18 10 31 0 25 1 25 85 24 172 -3
240 -7 240 -15 0 -4 14 -37 30 -73 17 -36 30 -70 30 -75 0 -6 5 -10 11 -10 5
0 8 -4 4 -9 -9 -16 14 -24 66 -23 27 0 52 1 57 2 4 1 14 2 23 1 9 -1 20 6 24
16 9 21 15 213 7 227 -5 9 -13 72 -15 114 -1 12 -5 22 -10 22 -4 0 -6 3 -4 8
11 17 -33 33 -63 22 -15 -5 -131 -3 -136 3 -4 4 -13 2 -20 -4 -8 -7 -14 -7
-19 1 -3 5 -11 10 -16 10 -6 0 -7 -4 -4 -10 4 -6 -2 -7 -17 -1 -14 5 -31 5
-40 0 -11 -6 -19 -5 -24 2 -4 8 -9 7 -15 -2 -7 -11 -9 -11 -9 -1 0 9 -6 10
-17 4 -10 -4 -29 -7 -43 -5 -61 8 -76 8 -87 -1 -8 -5 -13 -5 -13 1 0 5 -28 8
-62 7 -35 -1 -63 -3 -63 -4 0 -6 -55 -6 -77 1 -15 4 -30 4 -32 0 -6 -8 -48 -7
-63 2 -7 4 -14 4 -17 -1 -6 -9 -52 -8 -86 3 -15 5 -20 4 -16 -4z"/>
<path d="M15373 12263 c3 -5 -18 -8 -46 -7 -75 1 -102 -8 -101 -34 0 -12 -3
-22 -7 -22 -4 0 -6 -20 -6 -45 1 -28 7 -45 15 -45 6 0 12 -4 12 -8 0 -4 9 -9
20 -10 43 -4 50 -6 50 -14 0 -4 5 -7 11 -5 6 1 13 -7 15 -18 6 -35 7 -115 1
-122 -4 -3 -2 -14 3 -24 7 -12 7 -20 0 -24 -7 -4 -7 -12 0 -25 6 -10 6 -21 2
-24 -8 -5 -6 -180 2 -229 2 -12 -2 -28 -8 -36 -7 -9 -7 -12 0 -9 7 5 10 -19
10 -73 -1 -43 -4 -79 -8 -79 -4 0 -3 -11 2 -24 5 -13 6 -26 4 -29 -9 -9 -9
-107 0 -107 5 0 4 -6 -2 -13 -6 -7 -9 -23 -5 -35 4 -16 2 -22 -8 -20 -8 2 -13
-2 -12 -9 2 -7 -4 -10 -12 -7 -9 4 -21 2 -28 -4 -6 -5 -21 -8 -33 -7 -11 1
-21 -3 -22 -9 0 -6 -4 -26 -7 -45 -5 -25 -3 -31 6 -26 8 6 10 4 4 -6 -12 -18
-14 -49 -3 -49 4 0 8 -6 8 -13 0 -13 34 -15 230 -16 151 0 255 4 267 12 6 4
14 3 18 -3 3 -5 16 -10 28 -9 12 0 104 0 204 -1 171 -1 184 1 203 20 12 12 15
20 8 20 -8 0 -9 3 -3 8 12 8 18 28 18 60 1 12 4 22 7 22 5 0 11 32 12 70 1 8
6 18 12 22 7 5 7 8 -2 8 -8 0 -10 5 -6 12 5 7 9 38 10 69 0 31 4 61 8 67 3 6
2 14 -4 17 -7 4 -7 12 -2 18 10 15 9 27 -4 50 -8 14 -24 18 -71 19 -61 2 -68
-1 -103 -46 -13 -18 -13 -19 0 -12 13 7 13 6 0 -6 -8 -7 -16 -21 -18 -31 -2
-10 -14 -34 -28 -54 -13 -20 -24 -42 -24 -49 0 -8 -4 -14 -10 -14 -5 0 -10 -7
-10 -15 0 -8 -5 -15 -11 -15 -5 0 -8 -4 -5 -9 3 -5 -2 -12 -12 -16 -29 -13
-42 -14 -42 -3 0 7 -4 7 -12 1 -17 -13 -56 -14 -63 -2 -4 5 -12 6 -18 2 -18
-11 -36 -12 -43 -2 -3 5 -13 5 -24 -1 -13 -7 -21 -7 -25 0 -4 6 -13 7 -24 1
-16 -9 -44 -1 -42 13 1 3 0 7 0 9 -1 1 -2 18 -3 37 -1 20 -5 41 -10 48 -4 7
-3 12 2 12 5 0 9 7 9 15 0 8 -5 15 -11 15 -6 0 -4 5 4 10 13 9 13 10 0 10 -9
0 -11 3 -5 8 13 9 16 42 3 42 -5 0 -6 5 -2 12 9 14 15 113 13 213 -5 273 -2
406 8 416 7 7 25 13 40 15 15 1 28 3 28 4 0 1 16 4 35 7 19 2 37 9 38 14 2 5
8 6 14 3 7 -5 9 2 6 19 -3 15 0 28 6 31 8 3 7 7 -1 13 -7 5 -9 14 -3 22 11 19
-8 71 -25 65 -7 -3 -16 0 -20 5 -3 6 -12 8 -18 4 -17 -11 -79 -12 -99 -2 -9 5
-19 6 -22 1 -6 -10 -158 -8 -175 3 -10 6 -12 4 -6 -6 8 -12 6 -12 -8 0 -11 8
-17 9 -17 2 0 -7 -8 -8 -26 -1 -30 12 -37 12 -31 3z"/>
<path d="M16886 12263 c-4 -4 -26 -8 -49 -9 -23 -1 -45 -2 -49 -3 -11 -2 -23
-84 -19 -133 0 -10 13 -20 29 -24 15 -4 30 -12 34 -18 5 -7 8 -6 8 3 0 11 3
11 15 1 8 -6 19 -9 25 -5 12 7 11 11 16 -125 5 -125 5 -96 1 -260 -2 -74 0
-147 4 -161 4 -16 2 -32 -4 -38 -8 -8 -8 -11 2 -11 7 0 9 -5 6 -11 -4 -6 -8
-61 -9 -123 -1 -61 -5 -117 -9 -123 -4 -6 -2 -13 5 -15 9 -3 8 -9 -5 -22 -9
-10 -17 -14 -17 -9 0 4 -5 1 -10 -7 -7 -11 -10 -12 -10 -2 0 10 -4 9 -16 -2
-8 -9 -20 -14 -25 -10 -13 8 -35 -18 -34 -41 0 -11 -3 -25 -8 -32 -4 -6 -4
-14 1 -17 5 -3 7 -17 5 -30 -5 -23 18 -62 29 -50 3 2 34 4 69 5 142 1 370 1
469 -1 106 -2 251 -2 369 -1 35 1 61 4 58 7 -3 4 -1 16 5 28 7 11 13 28 13 36
0 8 4 21 8 28 5 6 5 17 2 22 -3 6 -1 10 5 10 6 0 8 5 4 11 -3 6 0 15 7 20 11
7 11 9 1 9 -7 0 -11 4 -7 9 9 16 19 176 14 224 -1 9 -9 17 -16 17 -8 0 -12 3
-10 8 4 6 -69 8 -120 3 -19 -2 -45 -33 -39 -47 3 -8 1 -14 -4 -14 -5 0 -12
-11 -16 -25 -3 -14 -10 -25 -15 -25 -5 0 -9 -6 -9 -13 0 -16 -40 -90 -53 -99
-6 -4 -18 -3 -26 2 -8 4 -25 4 -38 -1 -16 -6 -23 -5 -23 4 0 9 -3 8 -9 -1 -9
-15 -17 -15 -45 0 -11 6 -16 6 -12 0 7 -12 -123 -10 -143 2 -10 6 -12 5 -7 -2
5 -8 2 -10 -8 -6 -17 7 -17 6 -21 64 -1 22 -4 43 -5 48 -1 4 -1 12 0 17 5 26
6 67 0 70 -6 4 -4 33 4 95 2 14 4 31 5 38 1 7 6 10 13 6 6 -4 59 -6 117 -5
252 7 259 8 256 44 -1 12 2 27 7 34 5 7 5 14 -2 18 -6 3 -7 12 -3 18 14 23 13
85 -2 97 -8 7 -15 9 -15 5 0 -4 -7 -2 -15 5 -8 7 -15 8 -15 3 0 -5 -9 -9 -20
-9 -11 0 -20 4 -20 9 0 4 -5 5 -12 1 -13 -8 -276 -12 -287 -4 -4 3 -6 12 -6
20 1 8 -3 21 -8 28 -6 8 -5 12 3 12 10 0 10 3 0 15 -10 12 -10 15 1 15 9 0 10
3 4 8 -14 10 -17 32 -4 32 8 0 8 4 0 13 -8 10 -7 17 1 25 9 9 9 12 -1 12 -7 0
-9 5 -5 11 3 6 7 31 8 54 1 24 4 46 7 49 4 5 219 10 287 7 25 -1 32 -5 32 -21
0 -11 5 -20 11 -20 6 0 9 -6 7 -12 -3 -7 0 -18 7 -24 6 -6 17 -31 25 -55 18
-57 42 -73 100 -70 106 5 106 6 105 111 0 50 4 90 9 90 4 0 4 6 -1 13 -6 6
-10 19 -10 27 -1 8 -4 29 -8 45 -4 17 -6 40 -6 52 0 12 -4 25 -9 28 -6 4 -8
10 -5 15 7 11 -32 33 -45 25 -5 -3 -11 -1 -15 5 -4 6 -11 7 -18 3 -19 -11 -66
-13 -72 -3 -4 6 -12 7 -18 3 -18 -11 -36 -12 -43 -2 -3 5 -13 5 -24 -1 -13 -7
-21 -7 -26 1 -4 8 -9 7 -15 -2 -5 -8 -9 -9 -9 -3 0 12 -44 13 -56 1 -4 -3 -15
-2 -25 4 -14 7 -19 6 -19 -2 0 -8 -4 -8 -15 1 -10 9 -15 9 -15 1 0 -6 -7 -11
-16 -11 -9 0 -12 5 -8 12 4 7 3 8 -4 4 -19 -11 -92 -13 -92 -1 0 7 -3 7 -8 0
-8 -12 -65 -12 -101 0 -16 5 -21 4 -17 -4 5 -8 0 -8 -17 -2 -16 6 -28 6 -36
-2 -7 -7 -11 -7 -11 -1 0 6 -7 11 -15 11 -8 0 -15 -5 -15 -11 0 -7 -3 -6 -8 1
-6 9 -17 10 -38 4 -17 -5 -37 -5 -46 0 -8 5 -18 5 -22 2z"/>
<path d="M18467 12262 c-4 -6 -13 -9 -20 -6 -7 2 -21 -2 -32 -9 -25 -19 -32
-147 -7 -147 8 0 24 -8 35 -17 13 -11 17 -12 12 -4 -6 11 -4 13 11 7 18 -7 40
-13 55 -15 11 -1 18 -41 9 -46 -5 -3 -7 -17 -4 -31 3 -14 1 -31 -3 -38 -7 -10
-9 -32 -3 -46 6 -16 6 -50 -1 -50 -9 0 -6 -20 4 -37 5 -7 5 -13 0 -13 -4 0 -9
-23 -11 -52 -1 -28 -8 -58 -14 -65 -8 -10 -7 -13 2 -13 9 0 10 -3 1 -13 -6 -8
-8 -17 -5 -20 15 -15 -3 -308 -20 -336 -3 -4 -1 -13 4 -21 5 -9 5 -19 -2 -27
-6 -8 -6 -13 -1 -13 23 0 -1 -75 -24 -78 -30 -3 -47 -8 -74 -21 -23 -11 -27
-19 -25 -53 2 -21 -1 -41 -5 -44 -4 -2 -3 -18 3 -34 11 -34 8 -33 178 -32 307
1 319 4 321 65 2 51 1 89 -4 93 -4 5 -31 11 -82 21 -39 7 -70 23 -59 32 5 3 9
33 8 66 0 33 3 67 7 76 5 9 3 21 -3 27 -7 7 -8 12 -2 12 5 0 11 17 12 37 2 21
5 39 7 42 3 2 0 10 -6 18 -8 9 -8 13 0 13 13 0 10 42 -4 52 -7 5 -6 8 0 8 7 0
10 30 10 78 -1 42 2 89 6 103 4 15 3 31 -2 36 -5 5 0 9 11 10 19 2 24 -10 22
-47 0 -8 6 -18 13 -23 8 -4 12 -16 10 -27 -2 -11 1 -20 7 -20 6 0 8 -3 5 -7
-4 -3 1 -15 10 -26 10 -11 12 -17 5 -13 -7 4 -1 -13 12 -37 24 -42 38 -88 40
-129 0 -10 4 -18 8 -18 4 0 8 -8 8 -18 0 -10 4 -22 10 -28 5 -5 11 -22 12 -36
1 -15 5 -25 9 -22 4 2 10 -10 14 -28 4 -18 14 -44 22 -57 9 -14 10 -20 3 -16
-7 4 -5 -4 4 -18 9 -13 16 -29 15 -33 -4 -17 51 -137 59 -129 3 3 11 0 19 -6
10 -9 13 -8 13 0 0 7 5 9 13 4 16 -10 58 -11 80 0 10 5 17 4 17 -3 0 -7 7 -7
21 1 17 9 23 8 30 -2 6 -10 9 -11 9 -1 0 6 7 12 15 12 14 0 19 12 16 33 0 4 4
7 10 7 5 0 8 4 4 9 -3 5 -1 12 5 16 5 3 10 17 10 31 0 13 5 24 11 24 6 0 9 7
5 15 -3 8 -1 15 5 15 6 0 9 7 6 15 -4 8 -2 17 3 20 6 4 10 17 10 30 0 13 5 27
10 30 6 4 8 10 5 15 -3 5 -1 11 5 15 5 3 10 15 10 26 0 10 4 19 8 19 5 0 9 6
10 13 1 16 7 36 21 72 6 17 11 34 10 39 0 5 4 12 11 16 6 4 12 17 13 28 1 12
5 22 10 22 5 0 7 6 4 14 -3 8 1 17 9 20 9 3 13 10 9 15 -3 5 -1 12 5 16 6 4 8
11 5 16 -4 5 -1 9 5 9 7 0 10 7 7 15 -4 8 -2 17 4 20 5 4 7 11 4 16 -4 5 -2 9
3 9 5 0 9 7 10 15 1 8 3 21 4 28 2 19 28 42 29 25 0 -7 2 -25 4 -41 2 -17 0
-25 -7 -21 -7 4 -7 0 -1 -12 5 -11 8 -29 7 -42 0 -12 3 -25 8 -28 5 -3 4 -11
-2 -19 -12 -14 -10 -52 4 -74 7 -10 5 -12 -3 -6 -10 5 -11 3 -4 -11 10 -20 16
-77 17 -151 0 -24 5 -43 10 -43 6 0 6 -4 -1 -11 -7 -7 -8 -21 -3 -40 5 -17 5
-29 -1 -29 -5 0 -7 -11 -3 -24 8 -34 -23 -62 -63 -57 -7 1 -13 -2 -13 -6 0 -5
-10 -9 -21 -10 -25 -2 -30 -6 -33 -25 -1 -7 -5 -18 -8 -23 -4 -6 -3 -17 2 -25
5 -8 5 -22 -1 -32 -7 -12 -6 -18 1 -18 6 0 9 -4 6 -9 -3 -5 2 -15 10 -22 13
-11 70 -14 253 -14 130 0 243 -4 251 -9 8 -5 12 -6 8 -1 -5 5 2 13 15 19 16 9
22 20 21 44 0 18 2 32 5 32 4 0 6 14 5 31 -1 31 -28 64 -45 54 -4 -3 -11 -1
-14 5 -4 6 -15 8 -24 5 -11 -3 -28 3 -42 16 -13 11 -18 18 -11 14 6 -3 12 -1
12 4 0 6 -4 11 -8 11 -5 0 -8 25 -8 55 1 30 -3 55 -8 55 -5 0 -3 7 4 15 7 9 8
15 2 15 -6 0 -9 8 -7 18 1 9 -2 22 -7 29 -5 7 -5 14 2 18 6 3 8 11 4 16 -3 5
-7 50 -10 100 -2 50 -6 94 -9 99 -3 5 -1 11 4 15 6 3 8 11 6 18 -3 7 -7 35 -9
62 -2 28 -5 50 -6 50 -3 0 -10 96 -13 196 -3 106 -3 105 76 125 39 9 48 27 49
101 1 55 -18 73 -67 63 -22 -4 -107 -1 -112 4 -3 3 -14 1 -24 -5 -11 -6 -19
-6 -19 0 0 5 -11 8 -25 7 -14 0 -25 -5 -25 -11 0 -5 -4 -4 -9 3 -4 8 -12 14
-16 14 -4 0 -12 -6 -16 -14 -5 -7 -9 -8 -9 -2 0 11 -79 12 -98 0 -7 -4 -12 -2
-12 5 0 8 -3 9 -13 0 -8 -6 -17 -8 -20 -4 -9 8 -48 -37 -41 -48 3 -5 1 -9 -5
-9 -5 0 -8 -9 -6 -20 2 -11 -1 -20 -6 -20 -6 0 -8 -4 -4 -10 3 -5 1 -17 -4
-27 -27 -48 -50 -107 -45 -114 3 -5 0 -9 -6 -9 -7 0 -10 -7 -6 -15 3 -8 0 -15
-5 -15 -6 0 -9 -9 -6 -20 3 -10 1 -20 -4 -22 -5 -2 -10 -15 -11 -30 -1 -16 -5
-28 -9 -28 -3 0 -6 -7 -7 -15 -1 -8 -3 -22 -4 -30 -1 -8 -5 -15 -10 -15 -4 0
-7 -3 -7 -7 3 -15 -14 -74 -22 -79 -5 -3 -9 -14 -9 -25 0 -10 -4 -19 -9 -19
-6 0 -8 -9 -6 -20 2 -11 0 -20 -6 -20 -5 0 -9 -9 -9 -20 0 -11 -4 -20 -9 -20
-4 0 -7 -11 -6 -25 2 -14 -1 -25 -6 -25 -5 0 -9 -11 -9 -25 0 -14 -4 -25 -9
-25 -6 0 -8 -9 -6 -20 2 -13 -2 -20 -11 -20 -8 0 -15 8 -16 18 -2 28 -4 35
-22 74 -9 21 -16 44 -16 53 0 8 -5 15 -11 15 -6 0 -9 7 -5 15 3 8 1 15 -5 15
-5 0 -9 6 -8 13 1 6 0 19 -3 27 -10 27 -27 95 -27 104 0 5 -3 12 -8 15 -8 6
-52 121 -57 148 -1 7 -5 16 -9 19 -4 4 -7 18 -7 31 0 13 -4 23 -8 23 -5 0 -9
6 -10 13 -1 17 -7 38 -19 67 -6 14 -9 28 -6 33 2 4 -1 7 -6 7 -6 0 -11 9 -11
20 0 11 -5 20 -12 20 -6 0 -9 3 -5 6 9 9 -22 66 -33 59 -5 -3 -11 -1 -15 5 -4
6 -12 7 -18 3 -19 -12 -58 -13 -51 -1 5 7 2 8 -7 3 -16 -10 -139 -14 -139 -4
0 8 -32 5 -48 -5 -6 -4 -12 -4 -12 1 0 10 -82 9 -97 0 -6 -4 -13 -2 -15 5 -3
9 -6 9 -11 0z"/>
<path d="M22363 12257 c-23 -10 -27 -24 -26 -89 1 -16 -4 -28 -11 -28 -6 0 -4
-5 4 -10 8 -5 11 -10 5 -10 -19 0 31 -27 80 -44 l50 -16 2 -297 c2 -190 -1
-301 -8 -309 -7 -8 -7 -14 1 -19 5 -3 10 -11 10 -16 0 -6 -5 -7 -12 -3 -7 5
-8 3 -2 -7 5 -8 9 -62 10 -120 l2 -107 -54 -17 c-50 -16 -82 -44 -67 -59 3 -3
0 -6 -8 -6 -12 0 -12 -2 0 -9 10 -7 11 -13 2 -30 -7 -13 -8 -21 -2 -21 6 0 8
-6 5 -14 -8 -21 23 -33 84 -34 35 0 50 3 46 10 -5 7 -2 8 7 3 7 -5 63 -10 124
-12 60 -1 122 -5 137 -7 15 -2 29 1 32 7 3 9 5 9 5 1 1 -8 12 -9 34 -5 22 5
32 13 31 24 -1 9 1 17 5 17 3 0 6 23 6 51 -1 53 -24 86 -52 75 -7 -3 -13 -2
-13 3 0 5 -11 9 -25 10 -49 3 -55 4 -56 15 -6 45 -3 216 4 216 4 0 5 5 2 11
-10 15 -12 79 -3 79 4 0 3 11 -2 25 -7 18 -6 25 3 25 7 0 8 3 2 8 -5 4 -10 21
-10 37 0 17 5 33 10 37 7 5 7 8 0 8 -11 0 -12 96 -2 106 3 4 9 -5 13 -20 3
-14 10 -23 15 -20 8 5 13 -10 10 -29 -1 -5 3 -6 9 -2 5 3 10 -1 10 -10 0 -9 5
-13 10 -10 6 3 10 -1 10 -9 0 -8 10 -22 23 -31 12 -8 21 -18 19 -21 -3 -5 38
-62 66 -90 6 -7 12 -15 12 -18 0 -3 9 -17 21 -30 12 -13 22 -28 23 -32 0 -5
11 -19 23 -32 13 -14 20 -28 17 -33 -3 -5 -1 -9 3 -9 5 0 16 -12 25 -27 15
-25 27 -40 78 -100 6 -7 8 -13 5 -13 -3 0 5 -11 19 -24 15 -13 26 -28 26 -35
0 -6 5 -11 12 -11 6 0 9 -3 5 -6 -3 -4 4 -15 16 -25 12 -10 18 -18 14 -19 -4
0 3 -11 17 -25 13 -13 31 -34 40 -46 14 -21 23 -23 103 -21 49 1 95 5 103 7
14 5 24 45 21 85 -1 8 -1 26 0 40 1 38 1 43 -5 68 -2 12 -2 22 2 22 9 0 8 157
0 166 -4 3 -3 16 2 28 4 13 4 29 0 36 -5 8 -5 21 -1 29 6 14 7 417 1 431 -6
14 -4 37 5 49 8 12 7 13 -4 6 -10 -6 -12 -4 -6 5 5 8 10 35 10 60 3 63 3 62
24 55 10 -3 24 1 31 10 7 8 21 15 31 15 11 0 20 6 20 13 1 6 3 28 5 47 5 57
-4 100 -21 93 -9 -3 -22 0 -30 7 -8 7 -15 8 -15 3 0 -5 -40 -9 -89 -9 -55 0
-87 4 -84 10 4 5 1 6 -8 1 -16 -10 -139 -13 -139 -4 0 10 -52 4 -76 -9 -17 -9
-21 -22 -23 -76 -2 -72 7 -83 69 -88 17 -1 34 -6 36 -10 3 -5 9 -6 13 -4 4 3
7 -8 6 -24 -1 -17 2 -30 7 -30 5 0 4 -8 -1 -19 -6 -10 -7 -21 -4 -25 12 -12
12 -67 1 -60 -7 5 -8 2 -2 -7 11 -18 11 -52 0 -60 -5 -4 -5 -13 0 -20 12 -19
11 -99 -1 -99 -7 0 -7 -3 0 -8 10 -7 15 -222 5 -222 -3 0 -18 20 -33 45 -16
25 -34 45 -40 45 -7 0 -5 5 3 10 13 8 12 10 -2 10 -10 0 -18 6 -18 13 0 7 -9
19 -20 27 -11 8 -20 19 -20 24 0 5 -8 16 -17 25 -25 22 -63 78 -63 91 0 5 -4
10 -10 10 -5 0 -10 7 -10 15 0 8 -4 15 -10 15 -5 0 -10 7 -10 15 0 8 -4 15
-10 15 -5 0 -10 7 -10 15 0 8 -7 15 -16 15 -8 0 -13 4 -10 9 3 4 -8 23 -24 41
-17 19 -30 37 -30 40 0 4 -9 18 -21 31 -11 13 -29 34 -39 46 -10 12 -17 23
-14 25 2 3 -7 11 -21 18 -14 7 -25 21 -25 31 0 9 -3 19 -7 21 -13 5 -63 76
-63 87 0 6 -5 11 -11 11 -5 0 -7 5 -3 12 5 8 2 9 -12 3 -26 -11 -244 -14 -244
-3 0 5 -9 4 -19 -2 -11 -5 -21 -6 -23 -1 -2 4 -13 4 -25 -2z"/>
</g>
</svg>
